<svg id="Layer_1" data-name="Layer 1" xmlns="http://www.w3.org/2000/svg" viewBox="0 0 16.32 16.31"><defs><style>.cls-1{fill:#fff;}</style></defs><title>icono</title><path class="cls-1" d="M16.32,8.16v3.18a4.84,4.84,0,0,1-4.94,5c-2.2,0-4.4,0-6.6,0A4.82,4.82,0,0,1,.1,12.41a5.55,5.55,0,0,1-.09-1Q0,8.2,0,5A4.8,4.8,0,0,1,5,0h6.34a4.82,4.82,0,0,1,5,5ZM15,8.14h0c0-.93,0-1.87,0-2.81a4,4,0,0,0-3.83-4q-3-.08-6,0a4,4,0,0,0-3.83,4V11a4,4,0,0,0,4,4H11a4,4,0,0,0,4-4Z"/><path class="cls-1" d="M12.76,8.15a4.61,4.61,0,1,1-4.58-4.6A4.61,4.61,0,0,1,12.76,8.15ZM8.18,5a3.19,3.19,0,1,0,3.17,3.22A3.17,3.17,0,0,0,8.18,5Z"/><path class="cls-1" d="M12.31,4.55a1,1,0,0,1-1-1,1,1,0,0,1,1-1,1,1,0,0,1,1,1A1,1,0,0,1,12.31,4.55Z"/></svg>