<svg id="Layer_1" data-name="Layer 1" xmlns="http://www.w3.org/2000/svg" viewBox="0 0 14.84 12.03"><defs><style>.cls-1{fill:#fff;}</style></defs><title>icono</title><path class="cls-1" d="M14.46.3a3.8,3.8,0,0,1-1.11,1.6l1.42-.38.07.05a4.69,4.69,0,0,1-.8.86A1.76,1.76,0,0,0,13.34,4a8.58,8.58,0,0,1-7.16,8A9.13,9.13,0,0,1,.37,11,1.78,1.78,0,0,1,0,10.71,6.64,6.64,0,0,0,4.37,9.44,3.19,3.19,0,0,1,1.55,7.31H2.72a3.28,3.28,0,0,1-2.26-3l1.13.31.06-.08A3.11,3.11,0,0,1,.9.56,9.19,9.19,0,0,0,3.75,2.81a8.54,8.54,0,0,0,3.45.91,8.34,8.34,0,0,1,0-1,2.88,2.88,0,0,1,2-2.49,3,3,0,0,1,3.12.52.57.57,0,0,0,.63.14Z"/></svg>