<svg id="Layer_1" data-name="Layer 1" xmlns="http://www.w3.org/2000/svg" viewBox="0 0 619.62 318.95"><title>fonfoLineasTransversales</title><polygon points="-11.69 299.11 631.31 16.09 631.31 9.48 -11.69 292.5 -11.69 299.11"/><polygon points="506.26 -5.77 -11.69 222.2 -11.69 228.82 521.29 -5.77 506.26 -5.77"/><polygon points="-11.69 309.15 631.31 26.14 631.31 19.52 -11.69 302.54 -11.69 309.15"/><polygon points="460.63 -5.77 -11.69 202.12 -11.69 208.73 475.66 -5.77 460.63 -5.77"/><polygon points="483.45 -5.77 -11.69 212.16 -11.69 218.78 498.48 -5.77 483.45 -5.77"/><polygon points="72.78 -5.77 -11.69 31.4 -11.69 38.02 87.81 -5.77 72.78 -5.77"/><polygon points="-11.69 282.45 -11.69 289.07 631.31 6.05 631.31 -0.56 -11.69 282.45"/><polygon points="551.89 -5.77 -11.69 242.29 -11.69 248.9 566.92 -5.77 551.89 -5.77"/><polygon points="95.59 -5.77 -11.69 41.45 -11.69 48.06 110.62 -5.77 95.59 -5.77"/><polygon points="574.71 -5.77 -11.69 252.33 -11.69 258.94 589.74 -5.77 574.71 -5.77"/><polygon points="118.41 -5.77 -11.69 51.49 -11.69 58.1 133.44 -5.77 118.41 -5.77"/><polygon points="437.82 -5.77 -11.69 192.07 -11.69 198.69 452.85 -5.77 437.82 -5.77"/><polygon points="-11.69 319.19 631.31 36.18 631.31 29.56 -11.69 312.58 -11.69 319.19"/><polygon points="631.31 -5.77 620.34 -5.77 -11.69 272.41 -11.69 279.03 631.31 -3.99 631.31 -5.77"/><polygon points="529.08 -5.77 -11.69 232.24 -11.69 238.86 544.11 -5.77 529.08 -5.77"/><polygon points="-11.69 325.23 631.31 325.23 631.31 320.78 622.35 324.73 614.57 324.73 631.31 317.36 631.31 310.74 599.53 324.73 591.75 324.73 631.31 307.31 631.31 300.7 576.72 324.73 568.93 324.73 631.31 297.27 631.31 290.66 553.9 324.73 546.12 324.73 631.31 287.23 631.31 280.61 531.09 324.73 523.3 324.73 631.31 277.19 631.31 270.57 508.27 324.73 500.49 324.73 631.31 267.14 631.31 260.53 485.46 324.73 477.68 324.73 631.31 257.1 631.31 250.49 462.64 324.73 454.86 324.73 631.31 247.06 631.31 240.45 439.83 324.73 432.05 324.73 631.31 237.02 631.31 230.4 417.02 324.73 409.23 324.73 631.31 226.98 631.31 220.36 394.2 324.73 386.42 324.73 631.31 216.94 631.31 210.32 371.38 324.73 363.6 324.73 631.31 206.89 631.31 200.28 348.57 324.73 340.79 324.73 631.31 196.85 631.31 190.24 325.76 324.73 317.97 324.73 631.31 186.81 631.31 180.19 302.94 324.73 295.15 324.73 631.31 176.77 631.31 170.15 280.13 324.73 272.34 324.73 631.31 166.72 631.31 160.11 257.31 324.73 249.53 324.73 631.31 156.68 631.31 150.07 234.5 324.73 226.71 324.73 631.31 146.64 631.31 140.03 211.68 324.73 203.9 324.73 631.31 136.6 631.31 129.98 188.87 324.73 181.08 324.73 631.31 126.56 631.31 119.94 166.05 324.73 158.26 324.73 631.31 116.52 631.31 109.9 143.24 324.73 135.45 324.73 631.31 106.47 631.31 99.86 120.42 324.73 112.64 324.73 631.31 96.43 631.31 89.81 97.61 324.73 89.82 324.73 631.31 86.39 631.31 79.77 74.79 324.73 67 324.73 631.31 76.35 631.31 69.73 51.98 324.73 44.19 324.73 631.31 66.3 631.31 59.69 29.16 324.73 21.38 324.73 631.31 56.26 631.31 49.65 6.35 324.73 -1.44 324.73 631.31 46.22 631.31 39.6 -11.69 322.62 -11.69 325.23"/><polygon points="597.52 -5.77 -11.69 262.37 -11.69 268.99 612.55 -5.77 597.52 -5.77"/><polygon points="300.93 -5.77 -11.69 131.82 -11.69 138.44 315.96 -5.77 300.93 -5.77"/><polygon points="232.48 -5.77 -11.69 101.7 -11.69 108.31 247.51 -5.77 232.48 -5.77"/><polygon points="278.11 -5.77 -11.69 121.78 -11.69 128.4 293.14 -5.77 278.11 -5.77"/><polygon points="186.85 -5.77 -11.69 81.61 -11.69 88.23 201.88 -5.77 186.85 -5.77"/><polygon points="255.3 -5.77 -11.69 111.74 -11.69 118.35 270.33 -5.77 255.3 -5.77"/><polygon points="209.67 -5.77 -11.69 91.66 -11.69 98.27 224.7 -5.77 209.67 -5.77"/><polygon points="49.96 -5.77 -11.69 21.36 -11.69 27.98 64.99 -5.77 49.96 -5.77"/><polygon points="27.15 -5.77 -11.69 11.32 -11.69 17.93 42.18 -5.77 27.15 -5.77"/><polygon points="164.04 -5.77 -11.69 71.57 -11.69 78.19 179.07 -5.77 164.04 -5.77"/><polygon points="4.33 -5.77 -11.69 1.28 -11.69 7.89 19.36 -5.77 4.33 -5.77"/><polygon points="141.22 -5.77 -11.69 61.53 -11.69 68.14 156.25 -5.77 141.22 -5.77"/><polygon points="369.37 -5.77 -11.69 161.95 -11.69 168.56 384.4 -5.77 369.37 -5.77"/><polygon points="392.19 -5.77 -11.69 171.99 -11.69 178.61 407.22 -5.77 392.19 -5.77"/><polygon points="415 -5.77 -11.69 182.03 -11.69 188.65 430.03 -5.77 415 -5.77"/><polygon points="346.56 -5.77 -11.69 151.91 -11.69 158.52 361.59 -5.77 346.56 -5.77"/><polygon points="323.74 -5.77 -11.69 141.87 -11.69 148.48 338.77 -5.77 323.74 -5.77"/></svg>