<svg id="Layer_1" data-name="Layer 1" xmlns="http://www.w3.org/2000/svg" viewBox="0 0 115.98 58.46"><defs><style>.cls-1{fill:#f15a24;}.cls-2{fill:#fff;}.cls-3{fill:none;stroke:#f15a24;stroke-miterlimit:10;stroke-width:4px;}</style></defs><title>nutritionZoneLogo</title><path class="cls-1" d="M110.59,25.09H64.35A5.38,5.38,0,0,0,59,30.48v8.23a5.38,5.38,0,0,0,5.38,5.38h18L87.47,53l5.12-8.87h18A5.38,5.38,0,0,0,116,38.71V30.48A5.39,5.39,0,0,0,110.59,25.09Z"/><path class="cls-2" d="M12.81.46V22.53h-5l-3-10v10H0V.46H4.8L8,10.4V.46Z"/><path class="cls-2" d="M28.15.46V15.21A25.59,25.59,0,0,1,28,18.73a4.79,4.79,0,0,1-1,2.09,5,5,0,0,1-2.12,1.62,8.1,8.1,0,0,1-3.1.55,8.69,8.69,0,0,1-3.49-.66,5.24,5.24,0,0,1-2.26-1.7,4.71,4.71,0,0,1-.88-2.21c-.09-.78-.14-2.41-.14-4.9V.46h5.74V17a6.72,6.72,0,0,0,.15,1.84.63.63,0,0,0,.64.41.66.66,0,0,0,.7-.45,8.36,8.36,0,0,0,.16-2.09V.46Z"/><path class="cls-2" d="M41.93.46V4.88H38.52V22.53H32.79V4.88h-3.4V.46Z"/><path class="cls-2" d="M43.24.46H47.3a30.75,30.75,0,0,1,5.5.32,3.76,3.76,0,0,1,2.34,1.6,7.23,7.23,0,0,1,.91,4.11A6.5,6.5,0,0,1,55.41,10,3.38,3.38,0,0,1,52.89,11a4.34,4.34,0,0,1,2.29,1.13,3.47,3.47,0,0,1,.73,1.3,21.63,21.63,0,0,1,.14,3.27v5.82H50.72V15.19A5,5,0,0,0,50.44,13c-.19-.28-.67-.42-1.46-.42v10H43.24ZM49,4.24v4.9a2.5,2.5,0,0,0,1.35-.26c.26-.18.39-.75.39-1.73V5.94a1.81,1.81,0,0,0-.37-1.37A2.13,2.13,0,0,0,49,4.24Z"/><path class="cls-2" d="M64,.46V22.53H58.27V.46Z"/><path class="cls-2" d="M77.87.46V4.88H74.46V22.53H68.72V4.88H65.33V.46Z"/><path class="cls-2" d="M84.91.46V22.53H79.17V.46Z"/><path class="cls-2" d="M100.32,13.38q0,3.33-.15,4.71a5.48,5.48,0,0,1-1,2.53A5.37,5.37,0,0,1,97,22.38a9.07,9.07,0,0,1-6.46,0,5.24,5.24,0,0,1-2.26-1.74,5.15,5.15,0,0,1-1-2.52,46.64,46.64,0,0,1-.16-4.77V9.61a46,46,0,0,1,.16-4.71,5.23,5.23,0,0,1,1-2.53A5.3,5.3,0,0,1,90.42.61,8.05,8.05,0,0,1,93.69,0a8.23,8.23,0,0,1,3.18.58,5.2,5.2,0,0,1,2.27,1.74,5.23,5.23,0,0,1,1,2.52,46.64,46.64,0,0,1,.16,4.77ZM94.59,6.13a7,7,0,0,0-.17-2,.7.7,0,0,0-.71-.43.76.76,0,0,0-.68.35,4.9,4.9,0,0,0-.24,2.05v10.3a10.62,10.62,0,0,0,.15,2.38.69.69,0,0,0,.73.45.71.71,0,0,0,.75-.52,10.77,10.77,0,0,0,.17-2.47Z"/><path class="cls-2" d="M115.27.46V22.53h-5l-3-10v10h-4.8V.46h4.8l3.22,9.94V.46Z"/><path class="cls-2" d="M74.84,39.49H67.12V38.12L73,29.74H67.39V28.43h7.3v1.33l-6,8.42h6.13Z"/><path class="cls-2" d="M84,29.7a5.31,5.31,0,0,1,1,1.81,8.93,8.93,0,0,1,0,4.88,4.89,4.89,0,0,1-1,1.82,4.29,4.29,0,0,1-1.58,1.14,5.3,5.3,0,0,1-2,.37,5.23,5.23,0,0,1-2-.38,4.08,4.08,0,0,1-1.54-1.13,5,5,0,0,1-1-1.81,9,9,0,0,1,0-4.89,5.37,5.37,0,0,1,1-1.81,4.06,4.06,0,0,1,1.54-1.11,5.39,5.39,0,0,1,4,0A4.35,4.35,0,0,1,84,29.7ZM83.78,34A7.1,7.1,0,0,0,83.54,32a4,4,0,0,0-.67-1.4,2.66,2.66,0,0,0-1.06-.86,3.29,3.29,0,0,0-1.39-.29,3.39,3.39,0,0,0-1.4.28,2.89,2.89,0,0,0-1.06.87A4,4,0,0,0,77.29,32,7.62,7.62,0,0,0,77.06,34,5.26,5.26,0,0,0,78,37.29a3.17,3.17,0,0,0,4.9,0A5.32,5.32,0,0,0,83.78,34Z"/><path class="cls-2" d="M94.82,39.49H93.17L88.29,30v9.54H86.92V28.43H89l4.45,8.75V28.43h1.37Z"/><path class="cls-2" d="M97.06,39.49V28.43H104v1.31H98.53v3h5.07v1.3H98.53v4.11H104v1.31Z"/><path class="cls-2" d="M107.83,28.43l-.21,8h-1.23l-.23-8Zm-.08,11.06h-1.51V37.92h1.51Z"/><path class="cls-3" d="M82,47.86c-4.52.7-7.67,2.27-7.67,4.1,0,2.49,5.82,4.5,13,4.5s13-2,13-4.5c0-1.82-3.12-3.38-7.6-4.09"/></svg>